<svg width="512" height="512" xmlns="http://www.w3.org/2000/svg">

 <g>
  <title>background</title>
  <rect fill="none" id="canvas_background" height="514" width="514" y="-1" x="-1"/>
 </g>
 <g>
  <title>Layer 1</title>
  <path id="svg_1" fill="#03A9F4" d="m512,144.740424c-19.04,8.352 -39.328,13.888 -60.48,16.576c21.76,-12.992 38.368,-33.408 46.176,-58.016c-20.288,12.096 -42.688,20.64 -66.56,25.408c-19.264,-20.512 -46.72,-33.216 -76.672,-33.216c-58.112,0 -104.896,47.168 -104.896,104.992c0,8.32 0.704,16.32 2.432,23.936c-87.264,-4.256 -164.48,-46.08 -216.352,-109.792c-9.056,15.712 -14.368,33.696 -14.368,53.056c0,36.352 18.72,68.576 46.624,87.232c-16.864,-0.32 -33.408,-5.216 -47.424,-12.928c0,0.32 0,0.736 0,1.152c0,51.008 36.384,93.376 84.096,103.136c-8.544,2.336 -17.856,3.456 -27.52,3.456c-6.72,0 -13.504,-0.384 -19.872,-1.792c13.6,41.568 52.192,72.128 98.08,73.12c-35.712,27.936 -81.056,44.768 -130.144,44.768c-8.608,0 -16.864,-0.384 -25.12,-1.44c46.496,29.984 101.6,47.104 161.024,47.104c193.152,0 298.752,-160 298.752,-298.688c0,-4.64 -0.16,-9.12 -0.384,-13.568c20.832,-14.784 38.336,-33.248 52.608,-54.496z"/>
  <g id="svg_2"/>
  <g id="svg_3"/>
  <g id="svg_4"/>
  <g id="svg_5"/>
  <g id="svg_6"/>
  <g id="svg_7"/>
  <g id="svg_8"/>
  <g id="svg_9"/>
  <g id="svg_10"/>
  <g id="svg_11"/>
  <g id="svg_12"/>
  <g id="svg_13"/>
  <g id="svg_14"/>
  <g id="svg_15"/>
  <g id="svg_16"/>
 </g>
</svg>