<?xml version="1.0" standalone="no"?>
<!DOCTYPE svg PUBLIC "-//W3C//DTD SVG 20010904//EN"
 "http://www.w3.org/TR/2001/REC-SVG-20010904/DTD/svg10.dtd">
<svg version="1.0" xmlns="http://www.w3.org/2000/svg"
 width="2434.000000pt" height="2434.000000pt" viewBox="0 0 2434.000000 2434.000000"
 preserveAspectRatio="xMidYMid meet">
<metadata>
Created by potrace 1.11, written by Peter Selinger 2001-2013
</metadata>
<g transform="translate(0.000000,2434.000000) scale(0.100000,-0.100000)"
fill="#000000" stroke="none">
<path d="M6201 15420 c-5 -3 -7 -1443 -7 -3200 l1 -3195 1915 0 1915 0 2 356
2 356 -1422 1 c-782 0 -1429 1 -1438 1 -15 1 -16 217 -15 2484 l1 2482 1371 3
1370 2 2 338 c0 185 -1 346 -3 357 -4 20 -12 20 -1846 20 -1012 0 -1844 -2
-1848 -5z"/>
<path d="M4826 13845 c-37 -19 -74 -35 -82 -35 -8 0 -14 -4 -14 -9 0 -5 -10
-12 -22 -16 -13 -4 -25 -8 -28 -9 -3 -1 -45 -21 -95 -45 -154 -74 -287 -137
-370 -176 -44 -21 -120 -57 -170 -81 -49 -24 -95 -44 -101 -44 -6 0 -17 -7
-24 -15 -6 -8 -15 -14 -18 -13 -4 1 -69 -28 -145 -65 -76 -37 -141 -67 -143
-67 -2 0 -49 -22 -103 -49 -55 -27 -102 -47 -105 -44 -3 4 -6 1 -6 -5 0 -7 -9
-12 -20 -12 -11 0 -20 -4 -20 -10 0 -5 -4 -10 -9 -10 -10 0 -102 -42 -291
-133 -63 -30 -158 -75 -210 -100 -52 -24 -143 -68 -203 -96 -59 -28 -112 -51
-117 -51 -6 0 -10 -5 -10 -10 0 -6 -3 -9 -7 -8 -5 1 -33 -10 -63 -24 -30 -14
-107 -51 -170 -81 -63 -30 -160 -76 -215 -102 -55 -25 -132 -62 -170 -81 -39
-19 -76 -34 -83 -34 -6 0 -12 -4 -12 -10 0 -5 -5 -10 -12 -10 -6 0 -52 -20
-102 -44 -261 -126 -394 -187 -399 -183 -1 1 -16 -8 -34 -21 -17 -12 -33 -22
-36 -22 -5 0 -147 -66 -256 -119 -36 -17 -70 -31 -78 -31 -7 0 -13 -4 -13 -9
0 -5 -10 -12 -22 -16 -13 -4 -25 -8 -28 -9 -3 -1 -63 -30 -135 -65 -71 -34
-148 -70 -170 -79 -22 -8 -53 -25 -70 -36 -16 -12 -32 -20 -35 -20 -3 1 -15
-3 -27 -9 -22 -10 -35 -57 -22 -78 4 -7 4 -20 1 -30 -4 -10 -5 -52 -2 -93 3
-46 1 -78 -5 -80 -5 -3 -5 -5 2 -5 8 -1 9 -10 3 -30 -4 -15 -4 -34 0 -41 5 -7
5 -23 1 -34 -3 -12 -6 -32 -4 -46 5 -52 5 -85 2 -99 -4 -16 25 -32 256 -142
83 -39 184 -87 225 -107 41 -19 77 -36 80 -37 8 -3 125 -58 260 -123 69 -33
159 -75 200 -95 41 -19 127 -59 190 -90 170 -81 328 -156 390 -185 30 -13 133
-62 229 -108 95 -46 175 -84 176 -84 2 0 87 -40 190 -90 103 -49 188 -90 190
-90 1 0 68 -31 149 -70 80 -38 150 -70 156 -70 5 0 10 -4 10 -10 0 -5 4 -10
10 -10 11 0 81 -31 250 -112 186 -90 274 -132 280 -133 3 -1 55 -25 115 -54
61 -30 146 -70 190 -91 44 -21 118 -56 165 -78 47 -22 141 -66 210 -99 278
-133 347 -166 400 -190 30 -14 62 -29 70 -34 8 -5 25 -13 38 -19 12 -5 42 -19
66 -30 25 -11 47 -20 50 -20 2 0 4 187 5 415 l0 415 -57 26 c-31 14 -122 55
-202 91 -80 36 -170 76 -200 90 -30 14 -68 31 -85 38 -34 15 -130 58 -191 86
-22 11 -45 19 -51 19 -6 0 -16 7 -23 15 -6 8 -15 14 -18 13 -4 -1 -19 4 -34
10 -16 7 -40 17 -55 24 -16 6 -31 12 -35 12 -4 1 -13 7 -20 14 -6 6 -17 12
-23 12 -6 0 -39 14 -73 30 -34 17 -64 30 -66 30 -2 0 -43 18 -90 40 -47 22
-87 40 -90 40 -2 0 -44 18 -93 40 -48 23 -97 45 -108 50 -11 4 -45 20 -75 33
-30 14 -82 38 -115 52 -121 55 -651 293 -695 313 -25 11 -110 49 -190 85 -80
35 -180 81 -223 101 -43 20 -80 36 -82 36 -2 0 -39 16 -82 36 -43 20 -96 44
-118 54 -22 10 -70 32 -107 49 -37 17 -69 31 -72 31 -3 0 -33 13 -66 29 -63
31 -106 46 -150 55 -14 3 -45 10 -70 17 -25 6 -53 12 -64 15 -35 7 -27 12 45
29 39 10 101 29 138 42 36 13 72 25 79 25 6 1 12 5 12 10 0 4 6 8 13 8 7 0 37
11 65 25 29 14 54 25 57 25 6 0 47 17 130 55 17 7 152 66 300 130 149 64 293
127 322 141 28 13 57 24 62 24 6 0 11 5 11 12 0 6 3 9 6 6 5 -6 72 23 231 98
39 19 74 34 77 34 2 0 44 18 91 40 47 22 88 40 90 40 2 0 38 16 82 36 43 20
92 42 108 49 17 7 66 30 110 50 44 20 116 52 160 72 44 19 87 39 95 44 8 5 22
12 30 15 8 3 35 15 60 27 25 11 70 31 100 44 93 42 142 64 228 104 46 22 85
39 87 39 2 0 36 15 77 34 40 18 93 43 118 54 25 11 68 30 95 43 28 13 52 23
55 24 3 0 23 10 45 22 22 11 43 21 47 22 8 1 86 36 283 127 l110 51 2 416 c2
230 -1 417 -5 417 -4 -1 -38 -16 -76 -35z"/>
<path d="M19439 13878 c-1 -2 -3 -189 -3 -416 l-2 -414 65 -30 c37 -16 80 -36
96 -43 17 -7 157 -70 312 -139 156 -69 287 -126 292 -126 5 0 14 -7 21 -15 6
-8 15 -14 18 -13 4 1 29 -8 56 -20 27 -12 50 -22 52 -22 2 0 34 -14 71 -31 38
-17 129 -58 203 -91 74 -33 160 -71 190 -85 30 -14 73 -33 95 -43 22 -9 62
-27 89 -40 28 -12 129 -57 225 -100 97 -43 203 -90 236 -105 137 -62 166 -75
169 -75 4 0 127 -56 216 -98 19 -9 37 -17 40 -17 3 0 28 -11 55 -24 28 -13 86
-39 130 -58 44 -19 105 -47 135 -60 30 -14 94 -43 142 -64 48 -21 95 -42 105
-48 97 -51 448 -195 527 -215 55 -14 101 -28 103 -30 4 -3 -39 -15 -112 -31
-58 -12 -127 -36 -190 -65 -38 -18 -90 -41 -115 -52 -25 -11 -72 -33 -105 -48
-33 -15 -103 -47 -155 -70 -52 -23 -129 -59 -170 -78 -41 -20 -77 -37 -80 -37
-3 -1 -32 -14 -65 -29 -33 -15 -73 -34 -90 -41 -16 -7 -59 -27 -95 -43 -115
-52 -153 -69 -250 -112 -52 -23 -123 -55 -158 -71 -35 -16 -65 -29 -67 -29 -2
0 -43 -18 -90 -40 -47 -22 -88 -40 -90 -40 -3 0 -37 -16 -77 -35 -40 -20 -74
-36 -75 -35 -2 0 -37 -16 -79 -35 -41 -19 -77 -35 -79 -35 -4 0 -66 -27 -170
-76 -27 -12 -90 -40 -140 -62 -49 -22 -115 -51 -145 -65 -30 -14 -156 -70
-280 -125 -124 -55 -260 -116 -303 -136 -43 -20 -80 -36 -82 -36 -3 0 -28 -11
-57 -24 -29 -13 -75 -34 -103 -46 -27 -12 -81 -37 -120 -55 -38 -17 -77 -34
-85 -37 -13 -4 -15 -60 -15 -421 -1 -230 3 -417 7 -417 5 0 72 31 151 69 78
37 174 83 212 101 39 18 135 64 215 102 80 38 146 69 148 69 1 -1 23 10 50 24
26 14 53 25 59 25 7 0 13 4 13 10 0 5 3 9 8 8 8 -1 57 21 277 127 143 69 251
120 385 182 41 19 82 38 90 44 8 5 22 12 30 15 8 4 48 22 88 40 39 19 107 50
150 70 42 19 84 40 92 45 8 5 28 14 44 20 15 7 48 22 73 35 24 13 51 24 59 24
7 0 14 5 14 10 0 6 9 10 20 10 11 0 20 5 20 10 0 6 5 10 12 10 6 0 52 20 102
44 50 24 130 63 179 85 48 23 126 60 175 83 48 23 89 42 92 43 3 1 46 21 95
45 204 98 275 130 285 130 5 0 10 5 10 10 0 6 4 10 9 10 10 0 104 43 276 126
55 26 102 49 105 49 8 3 200 94 274 131 38 19 75 34 82 34 8 0 14 5 14 10 0 6
4 10 9 10 10 0 115 48 321 147 157 76 193 92 201 90 3 -1 13 4 23 12 9 7 31
21 48 30 l32 16 1 271 0 271 -30 13 c-16 8 -109 51 -205 97 -96 46 -202 96
-235 111 -33 14 -63 30 -66 35 -3 5 -9 9 -12 8 -10 0 -81 30 -87 38 -3 3 -9 7
-15 8 -9 1 -81 35 -337 157 -42 20 -81 36 -87 36 -6 0 -11 5 -11 10 0 6 -5 10
-11 10 -6 0 -57 22 -113 49 -55 27 -141 68 -191 91 -49 23 -135 64 -190 90
-55 26 -140 67 -190 90 -49 23 -130 61 -180 85 -197 94 -333 159 -400 190 -38
18 -124 58 -190 90 -230 109 -285 135 -295 135 -6 0 -10 5 -10 10 0 6 -3 9 -7
8 -5 -1 -37 12 -73 29 -176 82 -286 135 -300 144 -8 5 -22 12 -30 15 -86 36
-136 60 -138 66 -2 4 -8 8 -13 8 -8 0 -59 23 -319 147 -63 31 -149 71 -190 90
-41 19 -115 54 -165 78 -49 23 -139 66 -200 95 -183 86 -240 113 -247 117 -5
2 -9 3 -9 1z"/>
<path d="M16488 13675 c-2 -2 -48 -6 -103 -9 -155 -7 -221 -16 -365 -48 -60
-13 -67 -14 -77 -18 -5 -1 -11 -2 -15 -1 -4 0 -23 -6 -42 -14 -20 -9 -39 -15
-43 -15 -12 0 -135 -40 -170 -56 -17 -8 -34 -14 -37 -14 -12 0 -201 -94 -204
-102 -2 -4 -8 -8 -14 -8 -17 0 -165 -97 -256 -168 -88 -68 -254 -228 -312
-301 -65 -81 -149 -196 -162 -221 -7 -14 -16 -27 -19 -30 -3 -3 -14 -21 -24
-40 -10 -19 -21 -37 -24 -40 -14 -10 -130 -259 -164 -350 -104 -281 -149 -566
-149 -930 0 -220 9 -345 32 -485 6 -33 12 -71 14 -85 3 -14 5 -25 6 -25 1 0 3
-16 6 -35 6 -44 50 -208 76 -280 10 -30 21 -62 23 -71 5 -25 121 -282 137
-305 5 -6 20 -33 34 -60 32 -61 116 -188 126 -192 4 -2 8 -8 8 -14 0 -5 6 -15
13 -22 6 -7 21 -25 32 -40 78 -107 236 -261 366 -357 30 -22 62 -47 72 -55 9
-7 20 -14 23 -14 2 0 17 -8 32 -19 37 -25 126 -75 132 -74 3 1 13 -6 23 -14 9
-9 17 -12 17 -8 0 4 8 1 18 -7 9 -8 31 -20 47 -26 17 -6 44 -17 60 -23 17 -7
32 -13 35 -14 3 -1 14 -5 25 -9 77 -30 95 -35 95 -28 0 4 4 2 8 -4 6 -9 165
-54 241 -69 37 -7 96 -17 121 -20 14 -2 45 -6 70 -9 25 -3 70 -8 100 -11 65
-7 316 -7 380 -1 81 8 144 16 195 26 28 5 61 11 75 14 74 12 244 61 305 87 11
4 58 24 105 43 181 73 366 185 535 326 143 120 346 357 425 498 13 23 27 42
32 42 4 0 8 7 8 15 0 9 12 34 27 58 30 48 89 173 136 292 19 47 70 210 82 262
27 117 37 163 40 193 2 19 6 44 8 55 5 20 11 73 24 210 12 135 5 487 -13 620
-3 28 -7 62 -8 78 0 15 -5 27 -9 27 -5 0 -6 4 -2 9 3 5 0 31 -6 58 -6 26 -13
63 -15 82 -3 19 -7 38 -10 43 -3 4 -8 21 -10 36 -20 115 -160 500 -186 510 -4
2 -8 9 -8 16 0 18 -24 66 -32 66 -5 0 -8 5 -8 10 0 13 -99 172 -139 225 -17
22 -34 45 -38 50 -74 99 -232 258 -333 335 -25 19 -47 37 -50 40 -11 11 -98
70 -150 101 -198 118 -408 203 -631 255 -26 6 -159 29 -224 38 -22 3 -96 9
-165 12 -69 3 -130 7 -137 9 -6 2 -13 2 -15 0z m157 -725 c0 -1 14 -3 30 -5
43 -3 137 -31 229 -67 215 -85 440 -298 567 -538 72 -135 144 -348 163 -480 3
-19 7 -46 10 -60 8 -44 19 -124 22 -150 9 -103 16 -207 15 -220 0 -8 0 -28 0
-45 3 -133 -6 -381 -16 -415 -2 -8 -7 -42 -11 -75 -7 -66 -9 -78 -24 -150 -6
-27 -12 -59 -14 -70 -35 -178 -145 -432 -253 -582 -160 -224 -389 -380 -623
-427 -14 -3 -36 -8 -50 -11 -71 -18 -333 -12 -420 9 -14 3 -41 9 -60 12 -19 4
-39 9 -45 13 -5 3 -12 6 -15 6 -18 1 -114 44 -174 78 -204 116 -368 301 -482
542 -39 83 -98 243 -107 290 -2 11 -6 27 -9 35 -16 41 -39 170 -33 179 3 6 2
11 -2 11 -5 0 -10 19 -12 42 -1 23 -4 45 -7 50 -25 40 -24 629 0 768 3 14 7
43 10 65 23 160 72 325 147 497 21 50 45 99 52 107 7 9 20 32 30 51 30 59 118
171 197 250 66 66 204 170 226 170 4 0 15 6 23 13 32 26 193 83 266 93 22 4
58 9 80 13 34 6 290 7 290 1z"/>
<path d="M13227 13644 c-1 -1 -29 -5 -62 -9 -127 -14 -286 -70 -417 -146 -136
-78 -304 -222 -393 -334 -17 -20 -38 -47 -47 -59 -30 -37 -35 -43 -92 -138
-19 -32 -49 -90 -67 -130 -47 -109 -54 -111 -53 -20 0 73 -3 97 -26 195 -14
56 -18 72 -20 72 -1 0 -3 9 -5 20 -2 18 -25 93 -66 218 -7 20 -16 37 -21 37
-4 0 -8 7 -8 15 0 16 -71 126 -115 180 l-24 30 -355 0 c-238 0 -353 -3 -350
-10 2 -5 5 -23 8 -40 2 -16 9 -50 14 -75 6 -25 13 -63 16 -85 4 -23 9 -52 11
-65 11 -56 16 -87 20 -124 3 -21 7 -57 11 -80 6 -40 8 -63 18 -176 2 -30 7
-86 10 -123 8 -86 15 -204 22 -372 3 -71 6 -865 7 -1762 1 -898 4 -1634 7
-1634 3 -1 202 -3 443 -3 l437 -2 1 31 c0 16 1 595 3 1285 2 690 6 1269 9
1285 3 17 8 53 12 80 33 297 156 605 310 780 123 140 210 208 341 270 117 54
117 54 146 59 15 3 32 7 37 10 4 3 30 8 57 11 26 4 51 8 56 11 17 11 266 3
328 -11 16 -3 43 -8 60 -10 18 -3 39 -7 49 -9 14 -5 46 -11 105 -18 11 -2 20
4 21 14 9 53 17 107 20 133 5 36 11 76 19 130 4 22 9 56 12 75 6 42 32 221 39
270 3 19 8 51 11 70 3 19 7 45 9 56 3 19 -5 24 -63 39 -101 25 -156 36 -257
50 -44 7 -223 13 -228 9z"/>
<path d="M8168 12725 c-2 -3 -22 -7 -44 -11 -21 -3 -48 -11 -59 -17 -11 -6
-20 -9 -20 -7 0 2 -21 -5 -47 -15 -27 -11 -48 -24 -48 -28 0 -5 -4 -6 -9 -3
-5 3 -14 -1 -21 -9 -7 -8 -17 -15 -22 -15 -5 0 -15 -6 -22 -12 -8 -7 -24 -20
-36 -28 -38 -25 -131 -122 -177 -184 -48 -64 -122 -211 -153 -301 -11 -32 -20
-59 -20 -59 0 -2 2093 1 2108 3 7 0 10 6 6 13 -6 9 -7 115 -3 233 0 6 -2 36
-3 68 -2 32 0 61 5 64 4 3 4 10 0 16 -5 7 -7 35 -6 62 3 61 3 72 0 160 l-2 70
-711 2 c-391 1 -713 0 -716 -2z"/>
</g>
</svg>
